<svg width="22" height="22" viewBox="0 0 22 22" fill="none" xmlns="http://www.w3.org/2000/svg">
<path d="M17.8752 14.6537C17.2586 13.9401 16.1047 12.8666 16.1047 9.35C16.1047 6.67906 14.3657 4.54094 12.0209 4.01638V3.3C12.0209 2.69259 11.5638 2.2 11.0001 2.2C10.4364 2.2 9.97931 2.69259 9.97931 3.3V4.01638C7.6345 4.54094 5.89552 6.67906 5.89552 9.35C5.89552 12.8666 4.74163 13.9401 4.12495 14.6537C3.93343 14.8754 3.84852 15.1405 3.85012 15.4C3.85363 15.9638 4.26444 16.5 4.87474 16.5H17.1255C17.7358 16.5 18.1469 15.9638 18.1501 15.4C18.1517 15.1405 18.0668 14.8751 17.8752 14.6537ZM6.00565 14.85C6.68298 13.8885 7.42351 12.2949 7.42702 9.36994C7.42702 9.36306 7.42511 9.35688 7.42511 9.35C7.42511 7.22356 9.02555 5.5 11.0001 5.5C12.9746 5.5 14.5751 7.22356 14.5751 9.35C14.5751 9.35688 14.5732 9.36306 14.5732 9.36994C14.5767 12.2953 15.3172 13.8889 15.9945 14.85H6.00565ZM11.0001 19.8C12.1275 19.8 13.042 18.8152 13.042 17.6H8.9582C8.9582 18.8152 9.8727 19.8 11.0001 19.8Z" fill="#3F434A"/>
<path d="M15.95 1.7C17.7449 1.7 19.2 3.15508 19.2 4.95C19.2 6.74493 17.7449 8.2 15.95 8.2C14.155 8.2 12.7 6.74493 12.7 4.95C12.7 3.15508 14.155 1.7 15.95 1.7Z" fill="#FD7972" stroke="white"/>
</svg>
